<svg xmlns="http://www.w3.org/2000/svg" viewBox="0 0 205.31 75.8"><defs><style>.cls-1{fill:none;}.cls-1,.cls-3{stroke:#1d1d1b;}.cls-1,.cls-2,.cls-3{stroke-miterlimit:10;stroke-width:0.5px;}.cls-2{fill:#e30613;stroke:#e30613;}.cls-3,.cls-4{fill:#1d1d1b;}</style></defs><g id="Capa_2" data-name="Capa 2"><g id="Capa_3" data-name="Capa 3"><path class="cls-1" d="M11.29,50.71c-4.24-3.33-10.45-9.37-11-17a27.06,27.06,0,0,1,0-3c.11-2.55.39-9,4-15,3.32-5.53,7.93-8.21,11-10a40.38,40.38,0,0,1,16-5,51,51,0,0,1,19,1c4,1,8.87,2.19,14,6,2.48,1.84,6.81,5.14,9,11,1,2.71,2.59,6.91,1,10a7.22,7.22,0,0,0-1,3,8.18,8.18,0,0,0,1,4,24.92,24.92,0,0,0,6,8,5.78,5.78,0,0,1,1,1,5.33,5.33,0,0,1,1,2,2.81,2.81,0,0,1,0,2,2.36,2.36,0,0,1-1,1,5,5,0,0,1-2.5.5,14.2,14.2,0,0,0-2,0,3.8,3.8,0,0,0-2,1,3.67,3.67,0,0,0-1,2,2.41,2.41,0,0,0,0,1c.2.86.79,1.06,1,2a1.43,1.43,0,0,1,0,1c-.4.85-2,.83-2,1s1.24,0,1.5.5a1.36,1.36,0,0,1,0,1l0,0c-.14.36-.35.42-1,1a6.63,6.63,0,0,0-.54.55c-.23.24-.39.38-.46.45a2.3,2.3,0,0,0-.5,1.5,2.48,2.48,0,0,0,.5,1.5,2.76,2.76,0,0,0,.46.48c.24.2.37.24.54.52a3.56,3.56,0,0,1,0,3,4.32,4.32,0,0,1-2,2c-.72.41-2.35,1.18-6,1-3.4-.17-3.48-.92-7-1-1.17,0-1.62,0-4,0a15.16,15.16,0,0,0-3,0c-1.15.28-2.67,1.33-4,5"/><path class="cls-1" d="M6.24,46a24.37,24.37,0,0,1,2.55,8.17,24.38,24.38,0,0,1,0,6"/><path class="cls-1" d="M29.06,40.41c1.07.06,2-.18,3.73-.2a17.22,17.22,0,0,1,4.57.67c.62.11,1.39.23,2.43.33a28.78,28.78,0,0,0,7,0c2.82-.37,4.52-.59,6-2a6.43,6.43,0,0,0,2-5,6.18,6.18,0,0,0-.39-1.09l-.11-.24a5.59,5.59,0,0,0-.37-.59,5.24,5.24,0,0,0-.47-.59,10.41,10.41,0,0,0-1.66-1.49,32.89,32.89,0,0,0-8-4c-1.79-.56-1.71-.39-6-1.34l-2.61-.58-.34-.08c-2.92-.67-5.57-1.32-6-3a2.09,2.09,0,0,1,0-1"/><path class="cls-1" d="M53.79,32.21l.13.08a5.23,5.23,0,0,0,1.87.92l.27,0c.23,0,.44,0,.73,0,2.16-.1,3.15,0,4,0a9,9,0,0,0,6-3,9.19,9.19,0,0,0,2-4,10.82,10.82,0,0,0,0-5,14.83,14.83,0,0,0-3-6,25.55,25.55,0,0,0-11-8c-.57-.23-1.12-.42-1.68-.6a40.16,40.16,0,0,0-4.42-1l-1.9-.36a59.61,59.61,0,0,0-6.76-1,32.81,32.81,0,0,0-5.24,0c-.79.07-1.66.2-2.88.41l-3.12.59-1.7.32a28.48,28.48,0,0,0-6.3,1.68,34.49,34.49,0,0,0-6,4c-1.08.81-1.93,1.49-2.61,2.1a11.68,11.68,0,0,0-1.74,1.88,8,8,0,0,0-.65,1,7,7,0,0,0-1,3A6.91,6.91,0,0,0,9,21.4a2.81,2.81,0,0,1,.75,1.81A6.13,6.13,0,0,1,9,21.4l-.25-.19a2,2,0,0,0-2,0c-1,.62-1,2.14-1,3a8.74,8.74,0,0,0,.31,2.22,5.88,5.88,0,0,1,.69,1.78,7.37,7.37,0,0,1-.69-1.78c-.1-.13-.2-.22-.31-.22-.47,0-.91,1.66-1,3,0,.63-.29,4.26,2,6a3.67,3.67,0,0,0,1.82.64l2.18.36c5.74.94,4.64.82,6,1,3.87.5,4.92.4,6,.67a5.12,5.12,0,0,1,1,.33,10.23,10.23,0,0,1,2.12,1.18,5.71,5.71,0,0,0,1.4.68"/><path class="cls-1" d="M28.79,42.21a4.15,4.15,0,0,1-1.9,1.94l-.1.06a8.92,8.92,0,0,1-5,1,15.63,15.63,0,0,1-5-1,16.23,16.23,0,0,1-5-3,18.82,18.82,0,0,1-1.63-1.55,4.28,4.28,0,0,1,2.63.55c.94.59.94,1.23,2,2,1.3.94,2.68,1,5,1,3.13,0,4.7.06,6-1a5.16,5.16,0,0,0,1.52-2.14l.48.14a6.61,6.61,0,0,0,1.27.2A3.75,3.75,0,0,1,28.79,42.21Z"/><path class="cls-1" d="M10.16,39.66a5.49,5.49,0,0,1-1.27-2.15h0c0-.1-.06-.2-.09-.3a5.66,5.66,0,0,1-.18-1.36"/><path class="cls-1" d="M22.78,37.88a1.75,1.75,0,0,1,0,1.33c-.44.9-1.87.94-4,1h-.4a11.9,11.9,0,0,1-5.6-1c-.66-.32-1-.56-2-1a18.51,18.51,0,0,0-1.9-.7h0"/><path class="cls-1" d="M25.91,39.39a1.53,1.53,0,0,1-.12.82c-.59,1.27-3,1.08-4,1a8.76,8.76,0,0,1-3.4-1"/><path class="cls-1" d="M12.79,20.21a4.42,4.42,0,0,1,.56-2.52,2.09,2.09,0,0,1,.39-.43s0,0,0-.05c.67-.53,1.25-.3,2-1a3.62,3.62,0,0,0,1-2c.15-1.09-.32-1.62,0-2s.66-.41,2,0"/><path class="cls-1" d="M10.44,15.19c.42.29.88.63,1.35,1a17.61,17.61,0,0,1,1.56,1.48"/><path class="cls-1" d="M12.18,13.31a16.52,16.52,0,0,0,.61,1.9,18.22,18.22,0,0,0,1,2.05"/><path class="cls-1" d="M17.79,24.21c-.34-1-.6-2.2,0-3,.29-.38.57-.39,2-1,2.59-1.1,2.92-1.61,3-2s-.14-.61,0-1c.26-.66,1.24-.9,2-1"/><path class="cls-1" d="M19.39,20.37a4.6,4.6,0,0,0,1.4,1.84c1.06.81,2.1.79,3,2,.71,1,.36,1.36,1,2,1,1,2,.19,4,1,1.36.56,1.34,1.14,3,2a10.09,10.09,0,0,0,3,1"/><path class="cls-1" d="M17.79,26.21a15.87,15.87,0,0,1,3,2,16.35,16.35,0,0,1,2,2"/><path class="cls-1" d="M12.79,26.21a6.76,6.76,0,0,0,0,3,3.15,3.15,0,0,0,1,2c.83.57,1.81.15,3,0a8.75,8.75,0,0,1,5,1"/><path class="cls-1" d="M10.79,34.21a5.27,5.27,0,0,1,1-3A5,5,0,0,1,13,30"/><path class="cls-1" d="M27.79,36.21a3.77,3.77,0,0,1,2-2c.82-.3,1.46-.1,3,0a22.89,22.89,0,0,0,3,0"/><path class="cls-1" d="M19.79,13.21a8.51,8.51,0,0,0,3,0c1.49-.27,2.06-.81,3-1s2.69,0,5,2"/><path class="cls-1" d="M25,12.46a6.32,6.32,0,0,1-.23-2.25,6.89,6.89,0,0,1,1-3,7.75,7.75,0,0,1,1.3-1.68"/><path class="cls-1" d="M22.79,10.21h3"/><path class="cls-1" d="M31.16,8.59a8,8,0,0,0,.63-2.38,13.12,13.12,0,0,0,.12-1.59"/><path class="cls-1" d="M28.79,8.21a10,10,0,0,1,4,1c1.15.57.91.75,3,2a17.77,17.77,0,0,1,3,2,4.9,4.9,0,0,1,1,1c.68,1,.56,1.69,1,3a8.91,8.91,0,0,0,1,2"/><path class="cls-1" d="M34.79,19.21v3a8,8,0,0,0,.34,2.08"/><path class="cls-1" d="M37.79,20.21a22.68,22.68,0,0,1,0,3,8.74,8.74,0,0,0,0,1.66"/><path class="cls-1" d="M32.79,38.21a3.71,3.71,0,0,1,3-1,8.6,8.6,0,0,1,2,1c.83.45,1.53.78,2,1"/><path class="cls-1" d="M37.79,31.21a4.67,4.67,0,0,0,3,2c1.1.15,1.67-.34,3,0a5.65,5.65,0,0,1,2,1c1.34,1,1.13,1.67,2,2,1.13.42,1.91-.52,3,0a2.28,2.28,0,0,1,1,1"/><path class="cls-1" d="M44.79,30.21a3.16,3.16,0,0,1,0,2,3,3,0,0,1-.65,1.1h0"/><path class="cls-1" d="M47.79,21.21a3.89,3.89,0,0,1,0,2,7.51,7.51,0,0,1-1,2h0"/><path class="cls-1" d="M49.79,24.21a1.69,1.69,0,0,0-1,1,1.78,1.78,0,0,0,1,2"/><path class="cls-1" d="M56.79,24.21a3.93,3.93,0,0,0-1-3h0c-.73-.7-1.64-.82-3-1a9.8,9.8,0,0,0-1-.09,12.44,12.44,0,0,0-2,.09"/><path class="cls-1" d="M58.79,20.21a6.54,6.54,0,0,1-3,1"/><path class="cls-1" d="M49.79,17.21a5.34,5.34,0,0,0,1,2,4.84,4.84,0,0,0,1,.91"/><path class="cls-1" d="M45.79,13.21a4.84,4.84,0,0,0,0,2,4.78,4.78,0,0,0,1,2"/><path class="cls-1" d="M40.79,10.21a8.13,8.13,0,0,0,0-1,11.21,11.21,0,0,0-.89-3.29,2.45,2.45,0,0,1-.11-.71,2.41,2.41,0,0,1,.24-1"/><path class="cls-1" d="M35.79,7.21a7,7,0,0,1,2-1,7.06,7.06,0,0,1,4,0"/><path class="cls-1" d="M45.79,9.21a9.55,9.55,0,0,1,3,0,10,10,0,0,1,3,1c1.27.66,1.46,1.09,3,2a17.38,17.38,0,0,0,2,1"/><path class="cls-1" d="M51.79,12.21a4.61,4.61,0,0,1-1,4"/><path class="cls-1" d="M50.79,14.21a4.83,4.83,0,0,0,3,2c.74.11.83-.12,2,0a5.79,5.79,0,0,1,3,1,4.66,4.66,0,0,1,1,1"/><path class="cls-1" d="M58.79,14.21a4.67,4.67,0,0,1,0,2,4.38,4.38,0,0,1-.27.82"/><path class="cls-1" d="M48.69,5.57a11.4,11.4,0,0,0,2.1,1.64l.38.22a16.48,16.48,0,0,0,1.62.78c1.22.49,1.79.52,3,1a13.83,13.83,0,0,1,2,1"/><path class="cls-1" d="M53.11,6.61a10.54,10.54,0,0,1-1.32.6l-.62.22c-1.31.39-2,.3-2.38.78a1.27,1.27,0,0,0-.22,1"/><path class="cls-1" d="M62.79,16.21a2.75,2.75,0,0,0,0,1c.28,1.4,1.55,1.57,2,3a3.59,3.59,0,0,1,0,2,4.53,4.53,0,0,1-1,2c-.49.58-.75.56-1,1a2.52,2.52,0,0,0,0,2"/><path class="cls-1" d="M29.79,56.21c.48-1.34,1.13-3.05,2-5,.29-.66,1.35-3,3-6,.68-1.23,1.53-2.7,2.57-4.33"/><path class="cls-1" d="M22.79,56.21a53.34,53.34,0,0,1,3-8,10,10,0,0,0,1-3,8.21,8.21,0,0,0,.1-1.06"/><path class="cls-1" d="M113.79,16.21v34"/><path class="cls-1" d="M120.79,16.21v34"/><path class="cls-1" d="M123.79,16.21v34"/><path class="cls-1" d="M124.79,16.21v34"/><path class="cls-1" d="M124.79,50.21h-11"/><path class="cls-1" d="M113.79,16.21h11"/><path class="cls-1" d="M124.79,19.21a34.17,34.17,0,0,1,0,28"/><path class="cls-1" d="M194.5,24.78a8,8,0,0,1,4.29-.57c1.83.12,2.94.19,4,1a6.22,6.22,0,0,1,2,4,12.91,12.91,0,0,1-1,8,8.36,8.36,0,0,1-3,4,4.83,4.83,0,0,1-3,1c-1.43-.1-1.66-1-3-1s-1.61.89-3,1a4.87,4.87,0,0,1-3-1,10.56,10.56,0,0,1-4-5,11.46,11.46,0,0,1-1-7,6.29,6.29,0,0,1,2-4c1.55-1.22,3.49-1.1,5-1a11.32,11.32,0,0,1,3.38.75,1.35,1.35,0,0,1,.33-.18"/><path class="cls-1" d="M195.79,18.21a14.4,14.4,0,0,0-1,3c0,.09,0,.18,0,.26a13.48,13.48,0,0,0-.24,3.31"/><path class="cls-1" d="M194.74,21.47c-.42-.29-.88-.6-1.39-.91a.05.05,0,0,0,0,0l-.51-.32a44.55,44.55,0,0,0-6-3c-1-.41-2.13-.84-3.41-1.25h0l-.18-.06"/><path class="cls-1" d="M193.35,20.56a.61.61,0,0,1-.07.1h0a2.27,2.27,0,0,1-.49.54c-1.88,1.5-5.48-.68-6-1a8.66,8.66,0,0,1-3-3,6.64,6.64,0,0,1-.55-1.2.54.54,0,0,1-.05-.11"/><path class="cls-1" d="M183.24,16l.13-.05h0a17,17,0,0,1,2.41-.75c2-.46,3.49-.78,5,0a4.86,4.86,0,0,1,2,2,5.16,5.16,0,0,1,.51,3.32.59.59,0,0,1,0,.13h0"/><circle class="cls-2" cx="194.97" cy="32.38" r="2.17"/><circle class="cls-3" cx="71.97" cy="27.38" r="2.17"/><path class="cls-1" d="M71.79,27.21a25.05,25.05,0,0,1,23-18c4.72-.15,8.21,1.18,13,3a56.48,56.48,0,0,1,5.72,2.55"/><path class="cls-4" d="M116.15,16.21a15.39,15.39,0,0,0-4.89.08l1.88-1.69.37-2.5A15.07,15.07,0,0,0,116.15,16.21Z"/></g></g></svg>