<svg xmlns="http://www.w3.org/2000/svg" viewBox="0 0 386.31 116.9"><defs><style>.cls-1{fill:none;}.cls-1,.cls-3{stroke:#1d1d1b;}.cls-1,.cls-2,.cls-3{stroke-miterlimit:10;stroke-width:0.5px;}.cls-2{fill:#e30613;stroke:#e30613;}.cls-3,.cls-4{fill:#1d1d1b;}</style></defs><g id="Capa_2" data-name="Capa 2"><g id="Capa_3" data-name="Capa 3"><path class="cls-1" d="M11.29,69C7.05,65.69.84,59.66.29,52a27.06,27.06,0,0,1,0-3c.11-2.55.39-9,4-15,3.32-5.53,7.93-8.21,11-10a40.38,40.38,0,0,1,16-5,51,51,0,0,1,19,1c4,1,8.87,2.18,14,6,2.48,1.83,6.81,5.14,9,11,1,2.71,2.59,6.91,1,10a7.16,7.16,0,0,0-1,3,8.18,8.18,0,0,0,1,4,24.92,24.92,0,0,0,6,8,5.41,5.41,0,0,1,1,1,5.33,5.33,0,0,1,1,2,2.81,2.81,0,0,1,0,2,2.36,2.36,0,0,1-1,1,5,5,0,0,1-2.5.5,14.2,14.2,0,0,0-2,0,3.73,3.73,0,0,0-2,1,3.67,3.67,0,0,0-1,2,2.41,2.41,0,0,0,0,1c.2.86.79,1.06,1,2a1.43,1.43,0,0,1,0,1c-.4.84-2,.83-2,1s1.24,0,1.5.5a1.36,1.36,0,0,1,0,1l0,0c-.14.36-.35.42-1,1a5.37,5.37,0,0,0-.54.55c-.23.24-.39.38-.46.45a2.3,2.3,0,0,0-.5,1.5,2.5,2.5,0,0,0,.5,1.5,2.88,2.88,0,0,0,.46.47c.24.21.37.25.54.53a3.56,3.56,0,0,1,0,3,4.36,4.36,0,0,1-2,2c-.72.41-2.35,1.18-6,1-3.4-.17-3.48-.92-7-1-1.17,0-1.62,0-4,0a15.16,15.16,0,0,0-3,0c-1.15.27-2.67,1.32-4,5"/><path class="cls-1" d="M6.24,64.36a24.37,24.37,0,0,1,2.55,8.17,24.38,24.38,0,0,1,0,6"/><path class="cls-1" d="M29.06,58.73c1.07.06,2-.18,3.73-.2a17.22,17.22,0,0,1,4.57.67c.62.11,1.39.23,2.43.33a28.78,28.78,0,0,0,7,0c2.82-.37,4.52-.59,6-2a6.43,6.43,0,0,0,2-5,6.18,6.18,0,0,0-.39-1.09l-.11-.24a5.59,5.59,0,0,0-.37-.59,5.24,5.24,0,0,0-.47-.59,10.41,10.41,0,0,0-1.66-1.49,32.89,32.89,0,0,0-8-4c-1.79-.56-1.71-.39-6-1.34l-2.61-.58-.34-.08c-2.92-.67-5.57-1.32-6-3a2.09,2.09,0,0,1,0-1"/><path class="cls-1" d="M53.79,50.53l.13.08a5.23,5.23,0,0,0,1.87.92l.27,0c.23,0,.44,0,.73,0,2.16-.1,3.15,0,4,0a9,9,0,0,0,6-3,9.19,9.19,0,0,0,2-4,10.82,10.82,0,0,0,0-5,14.83,14.83,0,0,0-3-6,25.55,25.55,0,0,0-11-8c-.57-.23-1.12-.42-1.68-.6a40.16,40.16,0,0,0-4.42-1l-1.9-.36a59.61,59.61,0,0,0-6.76-1,32.81,32.81,0,0,0-5.24,0c-.79.07-1.66.2-2.88.41l-3.12.59-1.7.32a28.48,28.48,0,0,0-6.3,1.68,34.49,34.49,0,0,0-6,4c-1.08.81-1.93,1.49-2.61,2.1a11.68,11.68,0,0,0-1.74,1.88,8,8,0,0,0-.65,1A6.22,6.22,0,0,0,9,39.72a2.81,2.81,0,0,1,.75,1.81A6.13,6.13,0,0,1,9,39.72l-.25-.19a2,2,0,0,0-2,0c-1,.62-1,2.14-1,3a8.74,8.74,0,0,0,.31,2.22,5.88,5.88,0,0,1,.69,1.78,7.37,7.37,0,0,1-.69-1.78c-.1-.13-.2-.22-.31-.22-.47,0-.91,1.66-1,3,0,.63-.29,4.26,2,6a3.67,3.67,0,0,0,1.82.64l2.18.36c5.74.94,4.64.82,6,1,3.87.5,4.92.4,6,.67a5.12,5.12,0,0,1,1,.33,10.23,10.23,0,0,1,2.12,1.18,5.71,5.71,0,0,0,1.4.68"/><path class="cls-1" d="M28.79,60.53a4.15,4.15,0,0,1-1.9,1.94l-.1.06a8.92,8.92,0,0,1-5,1,15.63,15.63,0,0,1-5-1,16.23,16.23,0,0,1-5-3A18.82,18.82,0,0,1,10.16,58a4.28,4.28,0,0,1,2.63.55c.94.59.94,1.23,2,2,1.3.94,2.68,1,5,1,3.13,0,4.7.06,6-1a5.16,5.16,0,0,0,1.52-2.14l.48.14a6.61,6.61,0,0,0,1.27.2A3.75,3.75,0,0,1,28.79,60.53Z"/><path class="cls-1" d="M10.16,58a5.49,5.49,0,0,1-1.27-2.15h0c0-.1-.06-.2-.09-.3a5.66,5.66,0,0,1-.18-1.36"/><path class="cls-1" d="M22.78,56.2a1.75,1.75,0,0,1,0,1.33c-.44.9-1.87.94-4,1h-.4a11.9,11.9,0,0,1-5.6-1c-.66-.32-1-.56-2-1a18.51,18.51,0,0,0-1.9-.7h0"/><path class="cls-1" d="M25.91,57.71a1.53,1.53,0,0,1-.12.82c-.59,1.27-3,1.08-4,1a8.76,8.76,0,0,1-3.4-1"/><path class="cls-1" d="M12.79,38.53A4.42,4.42,0,0,1,13.35,36a2.09,2.09,0,0,1,.39-.43l0,0c.67-.53,1.25-.3,2-1a3.62,3.62,0,0,0,1-2c.15-1.09-.32-1.62,0-2s.66-.41,2,0"/><path class="cls-1" d="M10.44,33.51c.42.29.88.63,1.35,1A17.61,17.61,0,0,1,13.35,36"/><path class="cls-1" d="M12.18,31.63a16.52,16.52,0,0,0,.61,1.9,18.22,18.22,0,0,0,1,2"/><path class="cls-1" d="M17.79,42.53c-.34-1-.6-2.2,0-3,.29-.38.57-.39,2-1,2.59-1.11,2.92-1.61,3-2s-.14-.61,0-1c.26-.66,1.24-.9,2-1"/><path class="cls-1" d="M19.39,38.69a4.6,4.6,0,0,0,1.4,1.84c1.06.81,2.1.79,3,2,.71,1,.36,1.36,1,2,1,1,2,.19,4,1,1.36.56,1.34,1.14,3,2a10.09,10.09,0,0,0,3,1"/><path class="cls-1" d="M17.79,44.53a15.87,15.87,0,0,1,3,2,16.35,16.35,0,0,1,2,2"/><path class="cls-1" d="M12.79,44.53a6.75,6.75,0,0,0,0,3,3.18,3.18,0,0,0,1,2c.83.57,1.81.14,3,0a8.75,8.75,0,0,1,5,1"/><path class="cls-1" d="M10.79,52.53a5.27,5.27,0,0,1,1-3A5,5,0,0,1,13,48.34"/><path class="cls-1" d="M27.79,54.53a3.77,3.77,0,0,1,2-2c.82-.3,1.46-.1,3,0a22.89,22.89,0,0,0,3,0"/><path class="cls-1" d="M19.79,31.53a8.75,8.75,0,0,0,3,0c1.49-.27,2.06-.81,3-1s2.69,0,5,2"/><path class="cls-1" d="M25,30.78a6.32,6.32,0,0,1-.23-2.25,6.89,6.89,0,0,1,1-3,7.75,7.75,0,0,1,1.3-1.68"/><path class="cls-1" d="M22.79,28.53h3"/><path class="cls-1" d="M31.16,26.91a8,8,0,0,0,.63-2.38,13.12,13.12,0,0,0,.12-1.59"/><path class="cls-1" d="M28.79,26.53a9.85,9.85,0,0,1,4,1c1.15.57.91.75,3,2a17.77,17.77,0,0,1,3,2,4.9,4.9,0,0,1,1,1c.68,1,.56,1.69,1,3a9.12,9.12,0,0,0,1,2"/><path class="cls-1" d="M34.79,37.53v3a8,8,0,0,0,.34,2.08"/><path class="cls-1" d="M37.79,38.53a22.68,22.68,0,0,1,0,3,8.74,8.74,0,0,0,0,1.66"/><path class="cls-1" d="M32.79,56.53a3.67,3.67,0,0,1,3-1,7.81,7.81,0,0,1,2,1c.83.45,1.53.78,2,1"/><path class="cls-1" d="M37.79,49.53a4.72,4.72,0,0,0,3,2c1.1.15,1.67-.34,3,0a5.49,5.49,0,0,1,2,1c1.34,1,1.13,1.67,2,2,1.13.41,1.91-.52,3,0a2.28,2.28,0,0,1,1,1"/><path class="cls-1" d="M44.79,48.53a3.16,3.16,0,0,1,0,2,3,3,0,0,1-.65,1.1h0"/><path class="cls-1" d="M47.79,39.53a3.89,3.89,0,0,1,0,2,7.51,7.51,0,0,1-1,2h0"/><path class="cls-1" d="M49.79,42.53a1.69,1.69,0,0,0-1,1,1.78,1.78,0,0,0,1,2"/><path class="cls-1" d="M56.79,42.53a3.93,3.93,0,0,0-1-3h0c-.73-.7-1.64-.82-3-1a9.8,9.8,0,0,0-1-.09,12.44,12.44,0,0,0-2,.09"/><path class="cls-1" d="M58.79,38.53a6.54,6.54,0,0,1-3,1"/><path class="cls-1" d="M49.79,35.53a5.34,5.34,0,0,0,1,2,4.84,4.84,0,0,0,1,.91"/><path class="cls-1" d="M45.79,31.53a4.83,4.83,0,0,0,0,2,4.78,4.78,0,0,0,1,2"/><path class="cls-1" d="M40.79,28.53a8.13,8.13,0,0,0,0-1,11.21,11.21,0,0,0-.89-3.29,2.45,2.45,0,0,1-.11-.71,2.41,2.41,0,0,1,.24-1"/><path class="cls-1" d="M35.79,25.53a6.51,6.51,0,0,1,2-1,7.06,7.06,0,0,1,4,0"/><path class="cls-1" d="M45.79,27.53a9.55,9.55,0,0,1,3,0,10,10,0,0,1,3,1c1.27.66,1.46,1.09,3,2a17.38,17.38,0,0,0,2,1"/><path class="cls-1" d="M51.79,30.53a4.51,4.51,0,0,1,0,2,4.55,4.55,0,0,1-1,2"/><path class="cls-1" d="M50.79,32.53a4.83,4.83,0,0,0,3,2c.74.11.83-.12,2,0a5.7,5.7,0,0,1,3,1,4.66,4.66,0,0,1,1,1"/><path class="cls-1" d="M58.79,32.53a4.67,4.67,0,0,1,0,2,4.38,4.38,0,0,1-.27.82"/><path class="cls-1" d="M48.69,23.89a11.4,11.4,0,0,0,2.1,1.64l.38.22a16.48,16.48,0,0,0,1.62.78c1.22.49,1.79.52,3,1a13.83,13.83,0,0,1,2,1"/><path class="cls-1" d="M53.11,24.93a10.54,10.54,0,0,1-1.32.6l-.62.22c-1.31.39-2,.3-2.38.78a1.27,1.27,0,0,0-.22,1"/><path class="cls-1" d="M62.79,34.53a2.75,2.75,0,0,0,0,1c.28,1.39,1.55,1.57,2,3a3.59,3.59,0,0,1,0,2,4.58,4.58,0,0,1-1,2c-.49.57-.75.56-1,1a2.52,2.52,0,0,0,0,2"/><path class="cls-1" d="M29.79,74.53c.48-1.34,1.13-3,2-5,.29-.66,1.35-3,3-6,.68-1.23,1.53-2.7,2.57-4.33"/><path class="cls-1" d="M22.79,74.53a53.34,53.34,0,0,1,3-8,10,10,0,0,0,1-3,8.21,8.21,0,0,0,.1-1.06"/><path class="cls-1" d="M375.5,65.1a8,8,0,0,1,4.29-.57c1.83.12,2.94.19,4,1a6.22,6.22,0,0,1,2,4,12.91,12.91,0,0,1-1,8,8.36,8.36,0,0,1-3,4,4.83,4.83,0,0,1-3,1c-1.43-.1-1.66-1-3-1s-1.61.89-3,1a4.87,4.87,0,0,1-3-1,10.56,10.56,0,0,1-4-5,11.46,11.46,0,0,1-1-7,6.29,6.29,0,0,1,2-4c1.55-1.22,3.49-1.1,5-1a11.32,11.32,0,0,1,3.38.75,1.35,1.35,0,0,1,.33-.18"/><path class="cls-1" d="M376.79,58.53a14.4,14.4,0,0,0-1,3c0,.09,0,.18-.05.26a13.48,13.48,0,0,0-.24,3.31"/><path class="cls-1" d="M375.74,61.79c-.42-.29-.88-.6-1.39-.91a.05.05,0,0,0-.05,0l-.51-.32a44.55,44.55,0,0,0-6-3c-1-.41-2.13-.84-3.41-1.25h0l-.18-.06"/><path class="cls-1" d="M374.35,60.88a.61.61,0,0,1-.07.1h0a2.27,2.27,0,0,1-.49.54c-1.88,1.5-5.48-.68-6-1a8.66,8.66,0,0,1-3-3,6.64,6.64,0,0,1-.55-1.2.54.54,0,0,1-.05-.11"/><path class="cls-1" d="M364.24,56.33l.13,0h0a17,17,0,0,1,2.41-.75c2-.46,3.49-.78,5,0a4.86,4.86,0,0,1,2,2,5.16,5.16,0,0,1,.51,3.32.59.59,0,0,1,0,.13h0"/><circle class="cls-2" cx="375.97" cy="72.7" r="2.17"/><circle class="cls-3" cx="71.97" cy="45.7" r="2.17"/><path class="cls-1" d="M154.79,99.53v-84"/><path class="cls-1" d="M161.79,99.53v-84"/><path class="cls-1" d="M168.79,79.6V37.46"/><path class="cls-1" d="M161.79,99.53h-7"/><path class="cls-1" d="M161.79,83.81a12.25,12.25,0,0,1,7-4.21"/><path class="cls-1" d="M161.79,15.53h-7"/><path class="cls-1" d="M161.79,33.25a12.25,12.25,0,0,0,7,4.21"/><path class="cls-1" d="M163.79,89.53h-2"/><path class="cls-1" d="M162.79,94.53h-1"/><path class="cls-1" d="M163.79,85.53v4"/><path class="cls-1" d="M166.9,85.53h-3.11"/><path class="cls-1" d="M166.9,85.53l1.89,17c.3,2.67.59,5.33.89,8"/><path class="cls-1" d="M162.79,94.53v16.26"/><path class="cls-1" d="M162.79,110.79l-19,2.49"/><path class="cls-1" d="M143.74,113.28c-.26.43-.52.86-.77,1.29"/><path class="cls-1" d="M188.1,111.4l-.31.13c-.34.14-.68.25-1,.35a14.38,14.38,0,0,1-4,.65c-5.67.17-11.33.72-17,1-6.72.34-6.59.76-13,1-3.54.13-6.6.12-9,.06l-.82,0"/><path class="cls-1" d="M169.68,110.53h17.11"/><path class="cls-1" d="M188.1,111.4l-1.31-.87"/><path class="cls-1" d="M143.79,116.53c1.3,0,3,0,5,0,14.53,0,18.34.26,25,0,3.05-.12,7.53-.38,13-1"/><path class="cls-1" d="M143.79,114.53v2"/><path class="cls-1" d="M186.79,115.53v-3.65"/><line class="cls-1" x1="244.79" y1="51.86" x2="244.79" y2="50.33"/><polyline class="cls-1" points="281.79 56.53 281.79 58.53 281.79 79.53 281.79 81.53"/><polyline class="cls-1" points="275.79 58.53 275.79 59.53 275.79 78.53 275.79 79.53"/><line class="cls-1" x1="270.79" y1="78.53" x2="270.79" y2="59.53"/><line class="cls-1" x1="265.79" y1="78.31" x2="265.79" y2="59.75"/><line class="cls-1" x1="261.69" y1="81.53" x2="245.4" y2="81.53"/><line class="cls-1" x1="263.79" y1="52.27" x2="249.78" y2="49.83"/><line class="cls-1" x1="263.79" y1="56.12" x2="263.79" y2="52.27"/><path class="cls-1" d="M245.4,81.53c-.23-.21-.43-.41-.61-.61a6.82,6.82,0,0,1-1-1.39c-.76-1.39-.85-2.71-1-5a38.09,38.09,0,0,1,0-4c.12-5.24-.24-5.45,0-7a10.11,10.11,0,0,1,.48-1.87,11.45,11.45,0,0,1,1.52-2.82,16,16,0,0,1,2-2.31"/><path class="cls-1" d="M243.27,61.66a6.85,6.85,0,0,1-.48-1.13c-.48-1.5-.32-2.68,0-5s.77-2.76,1-3a3,3,0,0,1,1-.67"/><path class="cls-1" d="M249.78,49.83l-5,.5"/><path class="cls-1" d="M261,58.17l.76-.64a20.73,20.73,0,0,1,2-1.41"/><path class="cls-1" d="M261.69,81.53a8.77,8.77,0,0,0,1.1-2,9.09,9.09,0,0,0,.58-2.68,40,40,0,0,0-.58-7.32c-.22-1.7-.45-2.69,0-4s1.11-1.84,1-3a2.78,2.78,0,0,0-.5-1.3c-.14-.21-.31-.44-.5-.7L261,58.17"/><polyline class="cls-1" points="275.79 78.53 270.79 78.53 266 78.53"/><polyline class="cls-1" points="275.79 59.53 270.79 59.53 266 59.53"/><polyline class="cls-1" points="282.29 79.53 281.79 79.53 275.79 79.53"/><line class="cls-1" x1="281.79" y1="58.53" x2="275.79" y2="58.53"/><polyline class="cls-1" points="281.79 81.53 286.79 81.53 295.31 81.53"/><polyline class="cls-1" points="281.79 56.53 286.25 56.53 294.37 56.53"/><path class="cls-1" d="M263.29,61.23a6.63,6.63,0,0,0,1.5-.7,7.1,7.1,0,0,0,1-.78l.21-.22"/><path class="cls-1" d="M263.37,76.85a6.74,6.74,0,0,1,1.42.68,7.1,7.1,0,0,1,1,.78l.21.22"/><path class="cls-1" d="M290.86,61.79a14.76,14.76,0,0,1,1.93,6.74,15.3,15.3,0,0,1-1.85,7.92"/><path class="cls-1" d="M290.86,61.79a6.7,6.7,0,0,1,.93-1.26,9,9,0,0,1,3-2l.22-.09"/><path class="cls-1" d="M294.37,56.53a6.13,6.13,0,0,1,.42,1,6.66,6.66,0,0,1,.22.91"/><path class="cls-1" d="M290.94,76.45a8.2,8.2,0,0,0,.85,1.08,9.43,9.43,0,0,0,3,2c.4.19.78.34,1.14.47"/><path class="cls-1" d="M295.31,81.53a4.64,4.64,0,0,0,.48-1,3.79,3.79,0,0,0,.14-.53"/><path class="cls-1" d="M71.79,45.53a237,237,0,0,1,39-25c18.48-9.44,36.27-18.53,61-20,8-.48,27.75-1.44,50,8C252.07,21.37,268,45.42,274.36,56.88"/><path class="cls-4" d="M275.79,59.53a15.07,15.07,0,0,0-4.14-2.6l2.5-.39,1.66-1.9A15.41,15.41,0,0,0,275.79,59.53Z"/><path class="cls-1" d="M171.79,58.86a49.37,49.37,0,0,1,15,4.67c9.21,4.59,12.62,10.51,17,14,6,4.76,17,7.93,39.53.93"/><path class="cls-4" d="M168.79,58.53a15.14,15.14,0,0,1,4,2.86l-.58-2.46,1.14-2.26A15.39,15.39,0,0,1,168.79,58.53Z"/></g></g></svg>